<svg width="205" height="205" viewBox="0 0 205 205" fill="none" xmlns="http://www.w3.org/2000/svg">
<path d="M102.5 187.917C149.676 187.917 187.917 149.676 187.917 102.5C187.917 98.5454 181.989 97.8877 179.947 101.279C175.593 108.491 169.655 114.617 162.582 119.195C155.509 123.772 147.488 126.679 139.125 127.697C130.762 128.715 122.278 127.817 114.313 125.07C106.349 122.323 99.1148 117.799 93.1578 111.842C87.2007 105.885 82.6774 98.6507 79.9305 90.6866C77.1835 82.7225 76.2849 74.2377 77.3028 65.8749C78.3207 57.5121 81.2283 49.4906 85.8055 42.418C90.3827 35.3453 96.5093 29.407 103.721 25.0529C107.112 23.0029 106.455 17.0835 102.5 17.0835C55.3243 17.0835 17.0833 55.3245 17.0833 102.5C17.0833 149.676 55.3243 187.917 102.5 187.917Z" fill="black"/>
</svg>
