<svg width="251" height="167" viewBox="0 0 251 167" fill="none" xmlns="http://www.w3.org/2000/svg">
<path d="M36.7558 38.63C38.2267 37.1549 40.2215 36.3262 42.3013 36.3262C44.3812 36.3262 46.376 37.1549 47.8469 38.63L70.029 60.8827C71.4578 62.3668 72.2484 64.3545 72.2305 66.4176C72.2127 68.4808 71.3877 70.4543 69.9334 71.9132C68.4791 73.3722 66.5118 74.1997 64.4552 74.2176C62.3986 74.2356 60.4173 73.4425 58.9379 72.0091L36.7558 49.7564C35.2853 48.2808 34.4593 46.2797 34.4593 44.1932C34.4593 42.1067 35.2853 40.1056 36.7558 38.63ZM214.244 38.63C215.715 40.1056 216.541 42.1067 216.541 44.1932C216.541 46.2797 215.715 48.2808 214.244 49.7564L192.062 72.0091C191.339 72.7606 190.473 73.3601 189.516 73.7725C188.559 74.1849 187.53 74.402 186.488 74.411C185.447 74.4201 184.414 74.221 183.45 73.8254C182.486 73.4297 181.61 72.8455 180.874 72.1066C180.137 71.3678 179.555 70.4893 179.161 69.5222C178.766 68.5552 178.568 67.519 178.577 66.4742C178.586 65.4294 178.802 64.3969 179.213 63.4369C179.624 62.4769 180.222 61.6086 180.971 60.8827L203.153 38.63C204.624 37.1549 206.619 36.3262 208.699 36.3262C210.779 36.3262 212.773 37.1549 214.244 38.63ZM183.685 151.263C187.531 141.708 188.98 131.352 187.905 121.103C186.83 110.855 183.264 101.029 177.519 92.4861C171.774 83.9436 164.027 76.9465 154.957 72.1091C145.887 67.2717 135.772 64.742 125.5 64.742C115.228 64.742 105.113 67.2717 96.0431 72.1091C86.9732 76.9465 79.2258 83.9436 73.481 92.4861C67.7362 101.029 64.1697 110.855 63.0946 121.103C62.0195 131.352 63.4688 141.708 67.3151 151.263H7.84375C5.76346 151.263 3.76837 152.092 2.29738 153.567C0.826393 155.043 0 157.045 0 159.131C0 161.218 0.826393 163.22 2.29738 164.695C3.76837 166.171 5.76346 167 7.84375 167H243.156C245.237 167 247.232 166.171 248.703 164.695C250.174 163.22 251 161.218 251 159.131C251 157.045 250.174 155.043 248.703 153.567C247.232 152.092 245.237 151.263 243.156 151.263H183.701H183.685ZM0 127.657C0 125.57 0.826393 123.568 2.29738 122.093C3.76837 120.617 5.76346 119.788 7.84375 119.788H39.2188C41.299 119.788 43.2941 120.617 44.7651 122.093C46.2361 123.568 47.0625 125.57 47.0625 127.657C47.0625 129.744 46.2361 131.745 44.7651 133.221C43.2941 134.696 41.299 135.525 39.2188 135.525H7.84375C5.76346 135.525 3.76837 134.696 2.29738 133.221C0.826393 131.745 0 129.744 0 127.657ZM203.938 127.657C203.938 125.57 204.764 123.568 206.235 122.093C207.706 120.617 209.701 119.788 211.781 119.788H243.156C245.237 119.788 247.232 120.617 248.703 122.093C250.174 123.568 251 125.57 251 127.657C251 129.744 250.174 131.745 248.703 133.221C247.232 134.696 245.237 135.525 243.156 135.525H211.781C209.701 135.525 207.706 134.696 206.235 133.221C204.764 131.745 203.938 129.744 203.938 127.657Z" fill="black"/>
<path d="M120.807 44.7591C122.283 46.2299 124.284 47.0562 126.372 47.0562C128.459 47.0562 130.461 46.2299 131.936 44.7591C133.412 43.2883 134.241 41.2935 134.241 39.2134V7.84264C134.241 5.76262 133.412 3.7678 131.936 2.297C130.461 0.826214 128.459 -6.48499e-05 126.372 -6.48499e-05C124.284 -6.48499e-05 122.283 0.826214 120.807 2.297C119.331 3.7678 118.502 5.76262 118.502 7.84264V39.2134C118.502 41.2935 119.331 43.2883 120.807 44.7591Z" fill="black"/>
</svg>
