<svg width="231" height="231" viewBox="0 0 231 231" fill="none" xmlns="http://www.w3.org/2000/svg">
<path d="M115.688 173.344C100.401 173.327 85.7461 167.247 74.9371 156.438C64.1281 145.629 58.0482 130.974 58.0313 115.688C58.0312 83.8997 83.8997 58.0312 115.688 58.0312C147.475 58.0312 173.344 83.8997 173.344 115.688C173.344 147.475 147.475 173.344 115.688 173.344Z" fill="black"/>
<path fill-rule="evenodd" clip-rule="evenodd" d="M115.688 0.375C117.387 0.375 119.016 1.04994 120.217 2.25135C121.419 3.45275 122.094 5.08221 122.094 6.78125V32.4062C122.094 34.1053 121.419 35.7347 120.217 36.9362C119.016 38.1376 117.387 38.8125 115.688 38.8125C113.988 38.8125 112.359 38.1376 111.158 36.9362C109.956 35.7347 109.281 34.1053 109.281 32.4062V6.78125C109.281 5.08221 109.956 3.45275 111.158 2.25135C112.359 1.04994 113.988 0.375 115.688 0.375ZM192.562 115.688C192.562 113.988 193.237 112.359 194.439 111.158C195.64 109.956 197.27 109.281 198.969 109.281H224.594C226.293 109.281 227.922 109.956 229.124 111.158C230.325 112.359 231 113.988 231 115.688C231 117.387 230.325 119.016 229.124 120.217C227.922 121.419 226.293 122.094 224.594 122.094H198.969C197.27 122.094 195.64 121.419 194.439 120.217C193.237 119.016 192.562 117.387 192.562 115.688ZM0.375 115.688C0.375 113.988 1.04994 112.359 2.25135 111.158C3.45275 109.956 5.08221 109.281 6.78125 109.281H32.4062C34.1053 109.281 35.7347 109.956 36.9362 111.158C38.1376 112.359 38.8125 113.988 38.8125 115.688C38.8125 117.387 38.1376 119.016 36.9362 120.217C35.7347 121.419 34.1053 122.094 32.4062 122.094H6.78125C5.08221 122.094 3.45275 121.419 2.25135 120.217C1.04994 119.016 0.375 117.387 0.375 115.688ZM115.688 192.562C117.387 192.562 119.016 193.237 120.217 194.439C121.419 195.64 122.094 197.27 122.094 198.969V224.594C122.094 226.293 121.419 227.922 120.217 229.124C119.016 230.325 117.387 231 115.688 231C113.988 231 112.359 230.325 111.158 229.124C109.956 227.922 109.281 226.293 109.281 224.594V198.969C109.281 197.27 109.956 195.64 111.158 194.439C112.359 193.237 113.988 192.562 115.688 192.562ZM197.098 34.2769C197.695 34.872 198.168 35.5789 198.491 36.3572C198.814 37.1355 198.98 37.9699 198.98 38.8125C198.98 39.6551 198.814 40.4895 198.491 41.2678C198.168 42.0461 197.695 42.753 197.098 43.3481L177.879 62.5669C176.676 63.7698 175.045 64.4456 173.344 64.4456C171.643 64.4456 170.011 63.7698 168.808 62.5669C167.605 61.364 166.929 59.7324 166.929 58.0312C166.929 56.3301 167.605 54.6985 168.808 53.4956L188.027 34.2769C188.622 33.6803 189.329 33.207 190.107 32.884C190.885 32.561 191.72 32.3948 192.562 32.3948C193.405 32.3948 194.24 32.561 195.018 32.884C195.796 33.207 196.503 33.6803 197.098 34.2769ZM62.5669 168.808C63.1635 169.403 63.6368 170.11 63.9598 170.888C64.2827 171.667 64.449 172.501 64.449 173.344C64.449 174.186 64.2827 175.021 63.9598 175.799C63.6368 176.577 63.1635 177.284 62.5669 177.879L43.3481 197.098C42.1452 198.301 40.5137 198.977 38.8125 198.977C37.1113 198.977 35.4798 198.301 34.2769 197.098C33.074 195.895 32.3982 194.264 32.3982 192.562C32.3982 190.861 33.074 189.23 34.2769 188.027L53.4956 168.808C54.0907 168.212 54.7976 167.738 55.5759 167.415C56.3542 167.092 57.1886 166.926 58.0312 166.926C58.8739 166.926 59.7083 167.092 60.4866 167.415C61.2649 167.738 61.9718 168.212 62.5669 168.808ZM34.2769 34.2769C34.872 33.6803 35.5789 33.207 36.3572 32.884C37.1355 32.561 37.9699 32.3948 38.8125 32.3948C39.6551 32.3948 40.4895 32.561 41.2678 32.884C42.0461 33.207 42.753 33.6803 43.3481 34.2769L62.5669 53.4956C63.7698 54.6985 64.4456 56.3301 64.4456 58.0312C64.4456 59.7324 63.7698 61.364 62.5669 62.5669C61.364 63.7698 59.7324 64.4456 58.0312 64.4456C56.3301 64.4456 54.6985 63.7698 53.4956 62.5669L34.2769 43.3481C33.6803 42.753 33.207 42.0461 32.884 41.2678C32.561 40.4895 32.3948 39.6551 32.3948 38.8125C32.3948 37.9699 32.561 37.1355 32.884 36.3572C33.207 35.5789 33.6803 34.872 34.2769 34.2769ZM168.808 168.808C169.403 168.212 170.11 167.738 170.888 167.415C171.667 167.092 172.501 166.926 173.344 166.926C174.186 166.926 175.021 167.092 175.799 167.415C176.577 167.738 177.284 168.212 177.879 168.808L197.098 188.027C197.694 188.622 198.166 189.33 198.489 190.108C198.811 190.886 198.977 191.72 198.977 192.562C198.977 193.405 198.811 194.239 198.489 195.017C198.166 195.795 197.694 196.503 197.098 197.098C196.503 197.694 195.795 198.166 195.017 198.489C194.239 198.811 193.405 198.977 192.562 198.977C191.72 198.977 190.886 198.811 190.108 198.489C189.33 198.166 188.622 197.694 188.027 197.098L168.808 177.879C168.212 177.284 167.738 176.577 167.415 175.799C167.092 175.021 166.926 174.186 166.926 173.344C166.926 172.501 167.092 171.667 167.415 170.888C167.738 170.11 168.212 169.403 168.808 168.808Z" fill="black"/>
</svg>
